HIERARCHY
ROOT hip
{
	OFFSET 0.000000 0.000000 0.000000 
	CHANNELS 6 Xposition Yposition Zposition Xrotation Zrotation Yrotation
	JOINT abdomen
	{
		OFFSET 0.000000 3.402643 0.000000 
		CHANNELS 3 Xrotation Zrotation Yrotation
		JOINT chest
		{
			OFFSET 0.000000 8.438565 -0.680529 
			CHANNELS 3 Xrotation Zrotation Yrotation
			JOINT neck
			{
				OFFSET 0.000000 10.207942 -0.272212 
				CHANNELS 3 Xrotation Zrotation Yrotation
				JOINT head
				{
					OFFSET 0.000000 3.130431 0.000000 
					CHANNELS 3 Xrotation Zrotation Yrotation
					End Site
					{
						OFFSET 0.000000 3.130435 0.000000 
					}
				}
			}
			JOINT lCollar
			{
				OFFSET 3.470700 6.669187 -0.816635 
				CHANNELS 3 Yrotation Zrotation Xrotation
				JOINT lShldr
				{
					OFFSET 3.198488 0.000000 0.000000 
					CHANNELS 3 Zrotation Yrotation Xrotation
					JOINT lForeArm
					{
						OFFSET 10.139888 0.000000 0.000000 
						CHANNELS 3 Yrotation Zrotation Xrotation
						JOINT lHand
						{
							OFFSET 8.370511 0.000000 0.000000 
							CHANNELS 3 Zrotation Yrotation Xrotation
							End Site
							{
								OFFSET 4.083176 0.000000 0.000000 
							}
						}
					}
				}
			}
			JOINT rCollar
			{
				OFFSET -3.470700 6.669187 -0.816635 
				CHANNELS 3 Yrotation Zrotation Xrotation
				JOINT rShldr
				{
					OFFSET -3.198488 0.000000 0.000000 
					CHANNELS 3 Zrotation Yrotation Xrotation
					JOINT rForeArm
					{
						OFFSET -10.139888 0.000000 0.000000 
						CHANNELS 3 Yrotation Zrotation Xrotation
						JOINT rHand
						{
							OFFSET -8.370511 0.000000 0.000000 
							CHANNELS 3 Zrotation Yrotation Xrotation
							End Site
							{
								OFFSET -4.083176 0.000000 0.000000 
							}
						}
					}
				}
			}
		}
	}
	JOINT lThigh
	{
		OFFSET 5.308129 -1.633274 1.361059 
		CHANNELS 3 Xrotation Zrotation Yrotation
		JOINT lShin
		{
			OFFSET -2.041588 -20.007561 0.000000 
			CHANNELS 3 Xrotation Zrotation Yrotation
			JOINT lFoot
			{
				OFFSET 0.000000 -19.190928 -1.224953 
				CHANNELS 3 Xrotation Yrotation Zrotation
				End Site
				{
					OFFSET 0.000000 -2.449906 4.627600 
				}
			}
		}
	}
	JOINT rThigh
	{
		OFFSET -5.308129 -1.633274 1.361059 
		CHANNELS 3 Xrotation Zrotation Yrotation
		JOINT rShin
		{
			OFFSET 2.041588 -20.007561 0.000000 
			CHANNELS 3 Xrotation Zrotation Yrotation
			JOINT rFoot
			{
				OFFSET 0.000000 -19.190928 -1.224953 
				CHANNELS 3 Xrotation Yrotation Zrotation
				End Site
				{
					OFFSET 0.000000 -2.449906 4.627600 
				}
			}
		}
	}
}
MOTION
Frames: 11
Frame Time: 0.011111
0.382103 47.940971 0.660969 -4.561700 1.347632 5.212141 51.373283 -0.589184 11.974250 -23.532402 1.601724 3.036327 -17.975645 3.514804 7.733668 4.935217 -15.057173 16.278847 1.250985 -9.723143 1.233505 -17.467703 -33.371319 26.740923 -83.812981 4.076438 25.238932 8.524705 12.647240 -26.360729 4.459502 10.758258 -0.530041 21.480398 37.325527 42.495193 86.025909 -1.485456 28.685541 -8.534408 -12.637552 70.023300 -18.938705 13.401269 11.361377 58.459267 -2.905377 -8.005070 -27.802494 -9.938383 -7.296142 -18.092314 -17.473278 -20.687346 60.493652 2.685648 8.163915 -26.744144 8.329627 6.318152 
0.353146 47.940025 0.676078 -4.678216 1.320935 5.232024 51.431965 -0.679969 11.849216 -23.561666 1.603319 3.025743 -18.061260 3.464565 7.758255 5.018182 -14.960124 16.289310 1.250985 -9.723143 1.233505 -17.322977 -33.809155 26.285278 -83.750366 4.126876 25.183533 8.524705 12.647240 -26.526747 4.459502 10.758258 -0.530041 21.829206 36.977161 42.403538 85.991745 -1.539966 28.544289 -8.534408 -12.637552 69.466660 -18.861502 13.470587 11.280952 58.468708 -2.905417 -8.015500 -27.826998 -9.877837 -7.258111 -17.928373 -17.360373 -20.675087 60.474113 2.685616 8.162341 -26.830126 8.228907 6.270642 
0.326079 47.932465 0.695277 -4.746587 1.234731 5.179324 51.407284 -0.778651 11.781054 -23.522644 1.601257 3.026835 -18.206139 3.456333 7.757774 5.128249 -14.947082 16.284843 1.250985 -9.723143 1.233505 -17.109407 -34.246204 25.912706 -83.719513 4.152631 25.159941 8.524705 12.647240 -26.556042 4.459502 10.758258 -0.530041 22.094797 36.655045 42.317657 85.959404 -1.596370 28.432467 -8.534408 -12.637552 69.017433 -18.812168 13.606715 11.270159 58.488651 -2.915099 -8.002963 -27.844755 -9.916392 -7.275992 -17.800825 -17.173738 -20.625099 60.415344 2.677257 8.162677 -26.872082 8.168444 6.233548 
0.298696 47.941280 0.719198 -4.814620 1.162232 5.174671 51.346165 -0.854921 11.694908 -23.464180 1.578631 3.028348 -18.361258 3.412397 7.738175 5.305135 -14.834015 16.208525 1.250985 -9.723143 1.233505 -16.867094 -34.634075 25.524675 -83.682716 4.185508 25.126825 8.524705 12.647240 -26.751352 4.459502 10.758258 -0.530041 22.350365 36.352188 42.232388 85.930038 -1.643804 28.330969 -8.534408 -12.637552 68.695175 -18.759218 13.720207 11.214928 58.478577 -2.913732 -8.011087 -27.828650 -10.012266 -7.328395 -17.653456 -16.995991 -20.555952 60.347324 2.703944 8.143147 -26.915260 8.090270 6.220031 
0.270054 47.957333 0.743433 -4.892387 1.090604 5.170200 51.293015 -0.942917 11.622898 -23.444817 1.538538 3.028628 -18.402246 3.442349 7.686305 5.376251 -14.852132 16.115252 1.250985 -9.723143 1.233505 -16.605383 -35.002190 25.214590 -83.644257 4.217337 25.093126 8.524705 12.647240 -27.015026 4.459502 10.758258 -0.530041 22.708801 36.014412 42.091091 85.896461 -1.700083 28.228615 -8.534408 -12.637552 68.304550 -18.655960 13.792205 11.114605 58.459267 -2.905376 -8.005067 -27.796703 -10.141133 -7.414148 -17.487440 -16.820251 -20.507864 60.278885 2.705249 8.138414 -26.902771 8.105599 6.205236 
0.242985 47.966465 0.757911 -4.960435 0.968597 5.160394 51.263565 -0.976320 11.575733 -23.444851 1.528836 3.018798 -18.364376 3.440284 7.667252 5.287230 -14.898522 16.089897 1.250985 -9.723143 1.233505 -16.373558 -35.341331 24.943727 -83.606300 4.249413 25.059368 8.524705 12.647240 -27.190809 4.459502 10.758258 -0.530041 22.994694 35.673885 41.994026 85.861519 -1.755811 28.126577 -8.534408 -12.637552 67.933449 -18.617855 13.939698 11.015039 58.449318 -2.923550 -8.004313 -27.821836 -10.110324 -7.383597 -17.332237 -16.588116 -20.482834 60.190945 2.705311 8.131457 -26.949907 8.093097 6.190479 
0.218749 47.961430 0.767040 -4.999681 0.879447 5.109007 51.198147 -1.058980 11.546935 -23.435209 1.498961 3.028626 -18.385035 3.399669 7.628899 5.234728 -14.839351 16.006367 1.250985 -9.723143 1.233505 -16.092203 -35.699432 24.701786 -83.557793 4.285771 25.015047 8.524705 12.647240 -27.288464 4.459502 10.758258 -0.530041 23.279089 35.362747 41.857861 85.820335 -1.818525 28.004238 -8.534408 -12.637552 67.650253 -18.622009 14.041856 10.947660 58.458988 -2.915270 -8.010321 -27.885090 -9.972376 -7.319917 -17.272072 -16.389685 -20.425432 60.141953 2.724792 8.128656 -27.015280 7.953655 6.125531 
0.196403 47.962372 0.782147 -5.058260 0.744173 5.071499 51.155594 -1.082362 11.535283 -23.425678 1.439786 3.038239 -18.522987 3.420666 7.567624 5.428108 -14.812338 15.863551 1.250985 -9.723143 1.233505 -15.780065 -36.125526 24.479134 -83.466446 4.362371 24.935562 8.524705 12.647240 -27.395887 4.459502 10.758258 -0.530041 23.579651 35.091503 41.759418 85.760803 -1.915154 27.859266 -8.534408 -12.637552 67.298691 -18.582581 14.217257 10.874465 58.459370 -2.913671 -7.999853 -27.866508 -10.022554 -7.340707 -17.145361 -16.146141 -20.368151 60.073891 2.724657 8.113507 -27.059183 7.819002 6.048858 
0.169963 47.971813 0.797885 -5.116868 0.815698 5.045198 51.132652 -1.292214 11.331635 -23.425562 1.469215 3.018912 -18.632042 3.425225 7.502063 5.553340 -14.788538 15.722330 1.250985 -9.723143 1.233505 -15.517096 -36.542416 24.237240 -83.379173 4.429734 24.858124 8.524705 12.647240 -27.571669 4.459502 10.758258 -0.530041 23.854273 34.799747 41.721497 85.691864 -2.017461 27.694342 -8.534408 -12.637552 66.869003 -18.451746 14.134812 10.840275 58.439503 -2.924899 -8.004221 -27.916346 -9.838250 -7.241853 -17.057297 -16.135986 -20.278845 60.015022 2.734458 8.114211 -27.047308 7.726787 5.996380 
0.145414 47.992588 0.815511 -5.205063 0.766826 4.960837 51.129631 -1.408843 11.229623 -23.445108 1.460478 3.018347 -18.632723 3.310850 7.468462 5.476168 -14.614218 15.625075 1.250985 -9.723143 1.233505 -15.195960 -36.909775 24.059389 -83.268555 4.515965 24.766891 8.524705 12.647240 -27.640026 4.459502 10.758258 -0.530041 24.140118 34.479237 41.692665 85.622292 -2.120193 27.548845 -8.534408 -12.637552 66.488144 -18.317642 14.196239 10.833608 58.409840 -2.925072 -8.011580 -27.921448 -9.741999 -7.187845 -16.912958 -15.974254 -20.167976 59.927166 2.744185 8.102907 -27.061958 7.739922 6.019001 
0.122751 48.003601 0.828416 -5.303185 0.598232 4.848328 51.120068 -1.436616 11.296628 -23.464882 1.393029 3.036952 -18.441734 3.313453 7.409157 5.065543 -14.541362 15.545581 1.250985 -9.723143 1.233505 -14.835613 -37.266899 23.924273 -83.188980 4.576752 24.699341 8.524705 12.647240 -27.649792 4.459502 10.758258 -0.530041 24.443359 34.179138 41.584362 85.551682 -2.222647 27.413057 -8.534408 -12.637552 66.224472 -18.218431 14.419061 10.818423 58.361740 -2.933232 -7.983094 -27.951532 -9.749907 -7.185545 -16.736689 -15.670571 -20.098042 59.809315 2.754115 8.108605 -27.034491 7.596193 5.940699 
